<?xml version="1.0" encoding="utf-8"?><!DOCTYPE svg PUBLIC "-//W3C//DTD SVG 1.1//EN" "http://www.w3.org/Graphics/SVG/1.1/DTD/svg11.dtd"><svg version="1.1" xmlns="http://www.w3.org/2000/svg" xmlns:xlink="http://www.w3.org/1999/xlink" x="0px" y="0px" viewBox="0 0 100 55" enable-background="new 0 0 100 44" xml:space="preserve"><path d="M84,7H10c-1.654,0-3,1.346-3,3v24c0,1.654,1.346,3,3,3h74c1.654,0,3-1.346,3-3V10C87,8.346,85.654,7,84,7z"/><path d="M98,17c-1,0-4,0-4,0v-7c0-5.514-4.486-10-10-10H10C4.486,0,0,4.486,0,10v24c0,5.514,4.486,10,10,10h74
	c5.514,0,10-4.486,10-10v-7c0,0,3,0,4,0s2-1,2-2.001C100,24,100,21,100,19C100,18,99,17,98,17z M90,34c0,3.309-2.691,6-6,6H10
	c-3.309,0-6-2.691-6-6V10c0-3.309,2.691-6,6-6h74c3.309,0,6,2.691,6,6V34z"/><text x="0" y="59" fill="#000000" font-size="5px" font-weight="bold" font-family="'Helvetica Neue', Helvetica, Arial-Unicode, Arial, Sans-serif">Created by Edward Boatman</text><text x="0" y="64" fill="#000000" font-size="5px" font-weight="bold" font-family="'Helvetica Neue', Helvetica, Arial-Unicode, Arial, Sans-serif">from the Noun Project</text></svg>